<svg width="60" height="60" viewBox="0 0 60 60" fill="none" xmlns="http://www.w3.org/2000/svg">
<g id="Search" filter="url(#filter0_d_190_582)">
<g id="Shape">
<path fill-rule="evenodd" clip-rule="evenodd" d="M46.7309 21.8655C46.7309 10.3418 37.3892 1 25.8655 1C14.3418 1 5 10.3418 5 21.8655C5 33.3892 14.3418 42.7309 25.8655 42.7309C31.05 42.7309 35.7928 40.8401 39.442 37.7104L52.26 50.5299L52.4401 50.6853C53.0684 51.1515 53.9601 51.0997 54.5299 50.5299C55.1567 49.9031 55.1567 48.8868 54.5299 48.26L41.7104 35.442C44.8401 31.7928 46.7309 27.05 46.7309 21.8655ZM8.21008 21.8655C8.21008 12.1147 16.1147 4.21007 25.8655 4.21007C35.6163 4.21007 43.5209 12.1147 43.5209 21.8655C43.5209 31.6163 35.6163 39.5209 25.8655 39.5209C16.1147 39.5209 8.21008 31.6163 8.21008 21.8655Z" fill="#B0E0E2"/>
<path d="M39.442 37.7104L39.7956 37.3568L39.4681 37.0293L39.1165 37.3308L39.442 37.7104ZM52.26 50.5299L51.9065 50.8834L51.9194 50.8964L51.9333 50.9084L52.26 50.5299ZM52.4401 50.6853L52.1133 51.0638L52.1273 51.0758L52.1421 51.0868L52.4401 50.6853ZM54.5299 48.26L54.8835 47.9065L54.8834 47.9065L54.5299 48.26ZM41.7104 35.442L41.3308 35.1165L41.0293 35.4681L41.3568 35.7956L41.7104 35.442ZM25.8655 1.5C37.113 1.5 46.2309 10.6179 46.2309 21.8655H47.2309C47.2309 10.0656 37.6653 0.5 25.8655 0.5V1.5ZM5.5 21.8655C5.5 10.6179 14.6179 1.5 25.8655 1.5V0.5C14.0656 0.5 4.5 10.0656 4.5 21.8655H5.5ZM25.8655 42.2309C14.6179 42.2309 5.5 33.113 5.5 21.8655H4.5C4.5 33.6653 14.0656 43.2309 25.8655 43.2309V42.2309ZM39.1165 37.3308C35.5545 40.3857 30.9261 42.2309 25.8655 42.2309V43.2309C31.1738 43.2309 36.0311 41.2944 39.7675 38.0899L39.1165 37.3308ZM52.6136 50.1764L39.7956 37.3568L39.0885 38.0639L51.9065 50.8834L52.6136 50.1764ZM52.7668 50.3068L52.5868 50.1514L51.9333 50.9084L52.1133 51.0638L52.7668 50.3068ZM54.1763 50.1763C53.7843 50.5683 53.1702 50.6045 52.738 50.2838L52.1421 51.0868C52.9666 51.6986 54.1358 51.6311 54.8835 50.8835L54.1763 50.1763ZM54.1763 48.6136C54.6079 49.0451 54.6079 49.7448 54.1763 50.1763L54.8835 50.8835C55.7055 50.0614 55.7055 48.7286 54.8835 47.9065L54.1763 48.6136ZM41.3568 35.7956L54.1764 48.6136L54.8834 47.9065L42.0639 35.0885L41.3568 35.7956ZM46.2309 21.8655C46.2309 26.9261 44.3857 31.5545 41.3308 35.1165L42.0899 35.7675C45.2944 32.0311 47.2309 27.1738 47.2309 21.8655H46.2309ZM25.8655 3.71007C15.8385 3.71007 7.71008 11.8385 7.71008 21.8655H8.71008C8.71008 12.3908 16.3908 4.71007 25.8655 4.71007V3.71007ZM44.0209 21.8655C44.0209 11.8385 35.8924 3.71007 25.8655 3.71007V4.71007C35.3401 4.71007 43.0209 12.3908 43.0209 21.8655H44.0209ZM25.8655 40.0209C35.8924 40.0209 44.0209 31.8924 44.0209 21.8655H43.0209C43.0209 31.3401 35.3401 39.0209 25.8655 39.0209V40.0209ZM7.71008 21.8655C7.71008 31.8924 15.8385 40.0209 25.8655 40.0209V39.0209C16.3908 39.0209 8.71008 31.3401 8.71008 21.8655H7.71008Z" fill="#3059DE"/>
</g>
</g>
<defs>
<filter id="filter0_d_190_582" x="0.5" y="0.5" width="59" height="59" filterUnits="userSpaceOnUse" color-interpolation-filters="sRGB">
<feFlood flood-opacity="0" result="BackgroundImageFix"/>
<feColorMatrix in="SourceAlpha" type="matrix" values="0 0 0 0 0 0 0 0 0 0 0 0 0 0 0 0 0 0 127 0" result="hardAlpha"/>
<feOffset dy="4"/>
<feGaussianBlur stdDeviation="2"/>
<feComposite in2="hardAlpha" operator="out"/>
<feColorMatrix type="matrix" values="0 0 0 0 0 0 0 0 0 0 0 0 0 0 0 0 0 0 0.25 0"/>
<feBlend mode="normal" in2="BackgroundImageFix" result="effect1_dropShadow_190_582"/>
<feBlend mode="normal" in="SourceGraphic" in2="effect1_dropShadow_190_582" result="shape"/>
</filter>
</defs>
</svg>
