<svg width="41" height="47" viewBox="0 0 41 47" fill="none" xmlns="http://www.w3.org/2000/svg">
<g id="New Post">
<g id="Icon">
<path d="M25.5835 1.15625C25.9344 1.15625 26.2189 1.41275 26.2189 1.72917V14.6703C26.2189 15.6196 27.0724 16.3891 28.1252 16.3891H39.5627C39.9136 16.3891 40.1981 16.6456 40.1981 16.962V39.5417C40.1981 43.0222 37.0687 45.8438 33.2085 45.8438H7.79183C3.93159 45.8438 0.802246 43.0222 0.802246 39.5417V7.45834C0.802246 3.97779 3.93159 1.15625 7.79183 1.15625H25.5835Z" fill="#B0E0E2"/>
<path d="M30.8859 2.0463C30.521 1.78072 30.0314 2.04917 30.0314 2.47198V12.3787C30.0314 12.6951 30.3159 12.9516 30.6668 12.9516H39.0501C39.3491 12.9516 39.538 12.6673 39.3636 12.4483L31.7052 2.82813C31.4695 2.53207 31.1932 2.27 30.8859 2.0463Z" fill="#B0E0E2"/>
<path d="M25.5835 1.15625C25.9344 1.15625 26.2189 1.41275 26.2189 1.72917V14.6703C26.2189 15.6196 27.0724 16.3891 28.1252 16.3891H39.5627C39.9136 16.3891 40.1981 16.6456 40.1981 16.962V39.5417C40.1981 43.0222 37.0687 45.8438 33.2085 45.8438H7.79183C3.93159 45.8438 0.802246 43.0222 0.802246 39.5417V7.45834C0.802246 3.97779 3.93159 1.15625 7.79183 1.15625H25.5835Z" stroke="#406ADE" stroke-linejoin="round"/>
<path d="M30.8859 2.0463C30.521 1.78072 30.0314 2.04917 30.0314 2.47198V12.3787C30.0314 12.6951 30.3159 12.9516 30.6668 12.9516H39.0501C39.3491 12.9516 39.538 12.6673 39.3636 12.4483L31.7052 2.82813C31.4695 2.53207 31.1932 2.27 30.8859 2.0463Z" stroke="#406ADE" stroke-linejoin="round"/>
</g>
<g id="Add Content">
<path id="Shape" d="M21.8889 14V22.8889H33V25.1111H21.8889V34H19.1111V25.1111H8V22.8889H19.1111V14H21.8889Z" fill="#B0E0E2" stroke="#3059DE"/>
</g>
</g>
</svg>
