                        <svg
                            xmlns="http://www.w3.org/2000/svg"
                            width="36"
                            height="39"
                            viewBox="0 0 36 39"
                            fill="none"
                        >
                            <path
                            d="M13.875 4.875C13.875 4.2019 14.3787 3.65625 15 3.65625H21C21.6213 3.65625 22.125 4.2019 22.125 4.875V6.09375H28.5C29.1213 6.09375 29.625 6.6394 29.625 7.3125C29.625 7.9856 29.1213 8.53125 28.5 8.53125H7.5C6.87868 8.53125 6.375 7.9856 6.375 7.3125C6.375 6.6394 6.87868 6.09375 7.5 6.09375H13.875V4.875Z"
                            fill="black"
                            />
                            <path
                            fillRule="evenodd"
                            clipRule="evenodd"
                            d="M9.35984 12.9103C9.40205 12.4988 9.72309 12.1875 10.1053 12.1875H25.8947C26.2769 12.1875 26.5979 12.4988 26.6401 12.9103L26.9404 15.8375C27.4815 21.1138 27.4815 26.4388 26.9404 31.7152L26.9108 32.0033C26.7137 33.925 25.3389 35.4573 23.5714 35.7254C19.8751 36.286 16.1248 36.286 12.4286 35.7254C10.6611 35.4573 9.28627 33.925 9.08917 32.0033L9.05962 31.7152C8.51846 26.4388 8.51846 21.1138 9.05962 15.8375L9.35984 12.9103ZM21.7955 20.2632C22.2348 20.7392 22.2348 21.5108 21.7955 21.9868L19.591 24.375L21.7955 26.7632C22.2348 27.2392 22.2348 28.0108 21.7955 28.4868C21.3562 28.9627 20.6438 28.9627 20.2045 28.4868L18 26.0986L15.7955 28.4868C15.3562 28.9627 14.6439 28.9627 14.2045 28.4868C13.7652 28.0108 13.7652 27.2392 14.2045 26.7632L16.409 24.375L14.2045 21.9868C13.7652 21.5108 13.7652 20.7392 14.2045 20.2632C14.6438 19.7873 15.3562 19.7873 15.7955 20.2632L18 22.6514L20.2045 20.2632C20.6439 19.7873 21.3562 19.7873 21.7955 20.2632Z"
                            fill="black"
                            />
                        </svg>