<svg width="52" height="56" viewBox="0 0 52 56" fill="none" xmlns="http://www.w3.org/2000/svg">
<g id="Solid/Files/Book-mark">
<path id="Icon" fill-rule="evenodd" clip-rule="evenodd" d="M26.0428 8.16663C26.3069 8.16663 26.5094 8.41873 26.4744 8.70057C25.8764 13.5242 25.9505 18.42 26.6965 23.2255L26.7281 23.4295C26.765 23.6668 26.9333 23.8554 27.1521 23.9044C27.3708 23.9534 27.5951 23.8527 27.7167 23.6509L31.2348 17.8146C31.3202 17.6729 31.5128 17.6729 31.5982 17.8146L35.1163 23.6509C35.238 23.8527 35.4622 23.9534 35.681 23.9044C35.8997 23.8554 36.0681 23.6668 36.1049 23.4295L36.1366 23.2255C36.8825 18.42 36.9566 13.5242 36.3586 8.70057C36.3237 8.41873 36.5262 8.16663 36.7902 8.16663L40.0832 8.16663C41.8781 8.16663 43.3332 9.73363 43.3332 11.6666V46.6666C43.3332 47.9553 42.3631 49 41.1665 49H16.2498C12.4295 49 9.26897 45.9576 8.7433 42H8.6665V18.6666C8.6665 12.8676 13.0317 8.16663 18.4165 8.16663L26.0428 8.16663ZM16.2498 36.1666H40.0832V45.5H16.2498C13.8566 45.5 11.9165 43.4106 11.9165 40.8333C11.9165 38.256 13.8566 36.1666 16.2498 36.1666Z" fill="black"/>
</g>
</svg>
