<svg xmlns="http://www.w3.org/2000/svg" width="47" height="39" viewBox="0 0 47 39" fill="none">
    <path d="M14.4917 8.53125C9.04582 8.53125 4.40625 11.9101 4.40625 16.2984C4.40625 19.3257 6.1146 21.8744 8.37871 23.9857C10.635 26.0897 13.5461 27.8558 16.1777 29.3339L20.7184 31.8843C21.2156 32.1636 21.8677 32.1636 22.365 31.8843L26.9056 29.3339C27.7471 28.8613 28.6172 28.3592 29.4853 27.826C29.7123 27.6865 29.7847 27.4319 29.6593 27.2219L26.9904 22.7513C26.8644 22.5402 26.518 22.507 26.3374 22.6888L26.1948 22.8321C25.4508 23.5805 24.3428 24.0139 23.1736 24.0139H19.5833C17.4202 24.0139 15.6667 22.5588 15.6667 20.7639C15.6667 18.969 17.4202 17.5139 19.5833 17.5139H20.9581C21.1919 17.5139 21.4135 17.4272 21.5623 17.2775L24.6402 14.1818C25.4986 13.3184 26.8319 12.8823 28.1693 13.0274C29.5067 13.1725 30.66 13.8784 31.222 14.8959L32.7939 17.7418C32.9588 18.0404 33.4277 18.12 33.7697 17.9547C34.3517 17.6733 35.0263 17.5139 35.7396 17.5139H38.0669C38.3626 17.5139 38.6139 17.3316 38.6381 17.0871C38.6638 16.8279 38.6771 16.565 38.6771 16.2984C38.6771 11.9101 34.0375 8.53125 28.5917 8.53125C25.7845 8.53125 23.3143 9.62348 21.5417 11.0367C19.7691 9.62348 17.2989 8.53125 14.4917 8.53125Z" fill="black"/>
    <path d="M28.9966 15.7422C28.7859 15.3607 28.3534 15.096 27.8519 15.0415C27.3504 14.9871 26.8504 15.1507 26.5285 15.4744L22.4813 19.5451H19.5833C18.7722 19.5451 18.1146 20.0908 18.1146 20.7639C18.1146 21.437 18.7722 21.9826 19.5833 21.9826H23.1736C23.612 21.9826 24.0276 21.8201 24.3066 21.5395L27.3028 18.5258L30.8141 24.8828C31.0249 25.2643 31.4574 25.529 31.9589 25.5835C32.4604 25.6379 32.9604 25.4743 33.2823 25.1506L36.4319 21.9826H41.125C41.9362 21.9826 42.5938 21.437 42.5938 20.7639C42.5938 20.0908 41.9362 19.5451 41.125 19.5451H35.7396C35.3012 19.5451 34.8856 19.7077 34.6066 19.9883L32.5079 22.0992L28.9966 15.7422Z" fill="black"/>
</svg>