<svg width="45" height="40" viewBox="0 0 45 40" fill="none" xmlns="http://www.w3.org/2000/svg">
<path id="Shape" fill-rule="evenodd" clip-rule="evenodd" d="M13.2302 25.5061C14.767 25.5061 16.0093 25.7093 17.283 26.1228L17.7628 26.2877C18.4332 26.5306 18.8134 27.3829 18.612 28.1913C18.5792 28.323 18.5319 28.4484 18.4715 28.5643L18.3393 28.7774C17.1263 30.5681 16.346 32.5359 15.7902 34.8358L15.6434 35.489L15.5738 35.8766C15.4984 36.4055 15.473 36.7784 15.473 37.1519C15.473 37.3615 15.4809 37.5688 15.4962 37.7736L15.5247 38.0788C15.629 39.0056 15.0904 39.859 14.3218 39.9847C14.2591 39.9949 14.196 40.0001 14.1328 40.0001L2.36025 39.9981C1.05672 39.998 0 38.7238 0 37.1519C0 36.9962 0.0105975 36.8408 0.031633 36.6875L0.0709949 36.4591C1.38073 30.166 6.2957 25.5061 13.2302 25.5061ZM32.0082 25.506C38.7886 25.506 43.6092 29.8311 44.8711 36.1912L44.9516 36.628C45.2111 38.1444 44.4021 39.6273 43.1446 39.9402C42.99 39.9787 42.8326 39.9981 42.6747 39.9981H21.1382C19.8347 39.998 18.778 38.7238 18.778 37.1519C18.778 36.9962 18.7886 36.8408 18.8096 36.6875L18.849 36.4591C20.1587 30.166 25.0737 25.506 32.0082 25.506ZM15.1736 0.310567C17.6599 1.02891 20.0214 3.44283 19.883 9.11217L19.8634 9.63658C19.7957 9.76201 20.7236 10.2743 20.7236 11.9235C20.7236 13.023 20.4369 13.7713 19.8634 14.1685C18.8126 19.693 16.6234 22.4553 13.2959 22.4553C9.96836 22.4553 7.58711 19.693 6.15213 14.1685C5.61301 13.8836 5.34346 13.1352 5.34346 11.9235C5.34346 10.7118 5.61301 9.94951 6.15213 9.63658C6.20949 5.05517 7.07509 2.43991 8.74893 1.79079C9.41336 1.53473 10.042 1.53473 10.6348 1.79079C11.2344 0.102993 12.7473 -0.390416 15.1736 0.310567ZM39.5138 4.76256C41.1819 8.22348 41.4916 12.4509 40.4427 17.4449C40.3666 17.9634 40.6414 18.3797 41.2669 18.6938L41.3488 18.7314L41.4515 18.7724C41.6833 18.8599 41.8125 19.1575 41.7399 19.4371C41.7193 19.5164 41.6837 19.5883 41.6364 19.6473L41.5571 19.7255C40.5244 20.5219 37.5447 20.5808 35.8158 20.1681C34.6732 21.6388 33.4243 22.3741 32.0691 22.3741C30.7139 22.3741 29.4512 21.6388 28.2809 20.1681C25.0072 19.8531 23.3703 16.8952 23.3703 11.2945C23.3703 6.16711 25.0783 2.79722 28.4944 1.18487C29.0834 0.90689 29.73 0.860113 30.3423 1.05119L30.7956 1.19265C33.9661 -1.19131 36.8722 -0.00133879 39.5138 4.76256Z" fill="black"/>
</svg>
