<svg width="44" height="39" viewBox="0 0 44 39" fill="none" xmlns="http://www.w3.org/2000/svg">
<g id="Solid/Status/Heart">
<path id="Icon" d="M15.3997 8.53125C10.3014 8.53125 5.95801 11.9101 5.95801 16.2984C5.95801 19.3257 7.55731 21.8744 9.67691 23.9857C11.7892 26.0897 14.5144 27.8558 16.9781 29.3339L21.2289 31.8843C21.6944 32.1636 22.3049 32.1636 22.7704 31.8843L27.0212 29.3339C29.4849 27.8558 32.2101 26.0897 34.3224 23.9857C36.442 21.8744 38.0413 19.3257 38.0413 16.2984C38.0413 11.9101 33.6979 8.53125 28.5997 8.53125C25.9716 8.53125 23.6591 9.62348 21.9997 11.0367C20.3402 9.62348 18.0277 8.53125 15.3997 8.53125Z" fill="#FF0000"/>
</g>
</svg>
