<svg xmlns="http://www.w3.org/2000/svg" width="49" height="52" viewBox="0 0 49 52" fill="none">
    <path d="M24.5002 8.125C20.2717 8.125 16.8439 11.7627 16.8439 16.25C16.8439 20.7373 20.2717 24.375 24.5002 24.375C28.7286 24.375 32.1564 20.7373 32.1564 16.25C32.1564 11.7627 28.7286 8.125 24.5002 8.125Z" fill="black"/>
    <path d="M16.3335 28.7083C12.1051 28.7083 8.67725 32.346 8.67725 36.8333V39.4079C8.67725 41.0399 9.79176 42.4315 11.3095 42.6944C20.0454 44.208 28.9549 44.208 37.6908 42.6944C39.2086 42.4315 40.3231 41.0399 40.3231 39.4079V36.8333C40.3231 32.346 36.8953 28.7083 32.6668 28.7083H31.9709C31.5942 28.7083 31.2199 28.7715 30.8618 28.8956L29.0948 29.508C26.1093 30.5425 22.8911 30.5425 19.9056 29.508L18.1385 28.8956C17.7804 28.7715 17.4061 28.7083 17.0294 28.7083H16.3335Z" fill="black"/>
</svg>