<svg width="46" height="35" viewBox="0 0 46 35" fill="none" xmlns="http://www.w3.org/2000/svg">
<g id="Icon">
<path d="M21.9375 32.9584C21.9375 32.0436 22.8609 31.3021 24 31.3021H40.5C40.8797 31.3021 41.1875 31.0549 41.1875 30.75L41.1875 4.25002C41.1875 3.94512 40.8797 3.69794 40.5 3.69794L24 3.69794C22.8609 3.69794 21.9375 2.95641 21.9375 2.04169C21.9375 1.12697 22.8609 0.385437 24 0.385437H40.5C43.1579 0.385437 45.3125 2.11567 45.3125 4.25002V30.75C45.3125 32.8844 43.1579 34.6146 40.5 34.6146H24C22.8609 34.6146 21.9375 33.8731 21.9375 32.9584Z" fill="black"/>
<path d="M33.9319 19.9628C33.9319 21.1824 32.7007 22.1711 31.1819 22.1711H17.828C17.7649 22.956 17.686 23.7403 17.5912 24.5236L17.5096 25.1976C17.3769 26.2935 15.9278 26.9498 14.6914 26.4739C9.66459 24.5394 5.11394 21.8921 1.25828 18.6594L1.17589 18.5903C0.441369 17.9745 0.441369 17.0033 1.17589 16.3874L1.25828 16.3184C5.11394 13.0856 9.66459 10.4384 14.6914 8.50381C15.9278 8.02797 17.3769 8.68426 17.5096 9.78013L17.5912 10.4541C17.686 11.2375 17.7649 12.0218 17.828 12.8067L31.1819 12.8067C32.7007 12.8067 33.9319 13.7954 33.9319 15.015V19.9628Z" fill="black"/>
</g>
</svg>
