<svg xmlns="http://www.w3.org/2000/svg" width="28" height="31" viewBox="0 0 28 31" fill="none">
    <path fill-rule="evenodd" clip-rule="evenodd" d="M17.9375 0.854166C17.9375 0.641307 17.7416 0.46875 17.5 0.46875H5.25C2.59213 0.46875 0.4375 2.36688 0.4375 4.70833V26.2917C0.4375 28.6331 2.59213 30.5312 5.25 30.5312H22.75C25.4079 30.5312 27.5625 28.6331 27.5625 26.2917V11.1017C27.5625 10.8889 27.3666 10.7163 27.125 10.7163H19.25C18.5251 10.7163 17.9375 10.1986 17.9375 9.56005V0.854166ZM19.25 15.8854C19.9749 15.8854 20.5625 16.4031 20.5625 17.0417C20.5625 17.6802 19.9749 18.1979 19.25 18.1979H8.75C8.02513 18.1979 7.4375 17.6802 7.4375 17.0417C7.4375 16.4031 8.02513 15.8854 8.75 15.8854H19.25ZM19.25 22.0521C19.9749 22.0521 20.5625 22.5698 20.5625 23.2083C20.5625 23.8469 19.9749 24.3646 19.25 24.3646H8.75C8.02513 24.3646 7.4375 23.8469 7.4375 23.2083C7.4375 22.5698 8.02513 22.0521 8.75 22.0521H19.25Z" fill="black"/>
    <path d="M20.5625 1.35388C20.5625 1.06944 20.8996 0.888847 21.1508 1.06751C21.3624 1.218 21.5526 1.3943 21.7149 1.59347L26.9879 8.06523C27.108 8.21257 26.978 8.4038 26.7721 8.4038H21C20.7584 8.4038 20.5625 8.23124 20.5625 8.01838V1.35388Z" fill="black"/>
</svg>