<svg xmlns="http://www.w3.org/2000/svg" width="48" height="48" viewBox="0 0 48 48" fill="none">
    <path
        d="M14.5 15.2C14.5 17.1329 16.067 18.7 18 18.7H30C31.933 18.7 33.5 17.1329 33.5 15.2V8.55255C33.5 8.24738 33.7474 8 34.0525 8C34.3444 8 34.6216 8.12747 34.8116 8.34896L40.7369 15.2573C41.5581 16.2148 41.9871 17.4473 41.9379 18.7077L41.2546 36.1952C41.1498 38.8786 38.9439 41 36.2584 41H35.5C34.9477 41 34.5 40.5523 34.5 40V30C34.5 28.067 32.933 26.5 31 26.5H17C15.067 26.5 13.5 28.067 13.5 30V40C13.5 40.5523 13.0523 41 12.5 41H12.2258C9.81817 41 7.78552 39.211 7.47978 36.8228C6.49195 29.1068 6.44939 21.299 7.35306 13.5726L7.47483 12.5315C7.77701 9.9479 9.96601 8 12.5672 8H13.5C14.0523 8 14.5 8.44772 14.5 9V15.2Z"
        fill="black"
    />
    <path
        d="M16.5 40C16.5 40.5523 16.9477 41 17.5 41H30.5C31.0523 41 31.5 40.5523 31.5 40V30C31.5 29.7239 31.2761 29.5 31 29.5H17C16.7239 29.5 16.5 29.7239 16.5 30V40Z"
        fill="black"
    />
    <path
        d="M30.5 9C30.5 8.44772 30.0523 8 29.5 8H18.5C17.9477 8 17.5 8.44772 17.5 9V15.2C17.5 15.4761 17.7239 15.7 18 15.7H30C30.2761 15.7 30.5 15.4761 30.5 15.2V9Z"
        fill="black"
    />
</svg>