<svg width="45" height="45" viewBox="0 0 45 45" fill="none" xmlns="http://www.w3.org/2000/svg">
<g id="Solid/Status/Group 23">
<path id="Icon" fill-rule="evenodd" clip-rule="evenodd" d="M15.75 9.84375C10.5359 9.84375 6.09375 13.7424 6.09375 18.8059C6.09375 22.2989 7.7294 25.2397 9.89717 27.6758C12.0575 30.1035 14.8446 32.1413 17.3643 33.8468L21.7117 36.7895C22.1878 37.1118 22.8122 37.1118 23.2883 36.7895L27.6357 33.8468C30.1554 32.1413 32.9425 30.1035 35.1028 27.6758C37.2706 25.2397 38.9062 22.2989 38.9062 18.8059C38.9062 13.7424 34.4641 9.84375 29.25 9.84375C26.5622 9.84375 24.1972 11.104 22.5 12.7347C20.8028 11.104 18.4378 9.84375 15.75 9.84375ZM16.4062 23.9062C16.4062 23.1296 17.0358 22.5 17.8125 22.5H21.0938V19.2188C21.0938 18.4421 21.7234 17.8125 22.5 17.8125C23.2766 17.8125 23.9062 18.4421 23.9062 19.2188V22.5H27.1875C27.9641 22.5 28.5938 23.1296 28.5938 23.9062C28.5938 24.6829 27.9641 25.3125 27.1875 25.3125H23.9062V28.5938C23.9062 29.3704 23.2766 30 22.5 30C21.7233 30 21.0937 29.3704 21.0937 28.5938V25.3125H17.8125C17.0358 25.3125 16.4062 24.6829 16.4062 23.9062Z" fill="black"/>
</g>
</svg>
