<svg width="27" height="20" viewBox="0 0 27 20" fill="none" xmlns="http://www.w3.org/2000/svg">
<g id="Comment">
<path id="Shape" fill-rule="evenodd" clip-rule="evenodd" d="M26.2437 9.76208C26.2437 4.37063 20.3689 0 13.1219 0C5.87486 0 0 4.37063 0 9.76208C0 15.1535 5.87486 19.5242 13.1219 19.5242C14.7036 19.5242 16.8765 19.0949 19.6404 18.2363L24.11 19.5334L24.2425 19.5655C24.8202 19.6781 25.4325 19.4531 25.6548 19.0291C25.7437 18.8596 25.7604 18.6738 25.7026 18.4969L24.4564 14.6839L24.6605 14.3207C25.716 12.4079 26.2437 10.8883 26.2437 9.76208ZM22.9888 13.8447L22.5774 14.5693L23.6933 17.9836L19.6177 16.8008L18.5046 17.1442C16.1573 17.8489 14.344 18.1929 13.1219 18.1929C6.86309 18.1929 1.78935 14.4183 1.78935 9.76203C1.78935 5.10578 6.86309 1.33114 13.1219 1.33114C19.3807 1.33114 24.4544 5.10578 24.4544 9.76203C24.4544 10.6899 23.9737 12.0652 22.9888 13.8447Z" fill="#262626"/>
</g>
</svg>
