<svg width="25" height="20" viewBox="0 0 25 20" fill="none" xmlns="http://www.w3.org/2000/svg">
<path id="Icon" fill-rule="evenodd" clip-rule="evenodd" d="M10.4037 2.64038C10.117 2.64039 9.85245 2.73948 9.71056 2.89997L3.94093 9.42612C3.17612 10.2912 2.85517 11.2899 3.02394 12.2796L3.63288 15.8505C3.74122 16.4859 4.51524 16.9891 5.50018 17.0646L9.15071 17.3445C11.5606 17.5292 14.0041 17.3691 16.3069 16.8755C17.4442 16.6317 18.3551 16.0755 18.794 15.3568L21.7324 10.5448C21.8042 10.4272 21.8539 10.3044 21.8803 10.1791C22.1031 9.12115 20.6659 8.22872 19.0336 8.41142L13.1435 9.07064C11.2829 9.27888 9.676 8.22084 10.0391 7.02665L11.1865 3.25328C11.2831 2.93574 10.9058 2.64038 10.4037 2.64038ZM7.46316 2.07492C8.0651 1.39406 9.18763 0.97364 10.4037 0.973633C12.5339 0.97362 14.1344 2.22667 13.7248 3.57378L12.5774 7.34715C12.5725 7.36332 12.5751 7.37319 12.5786 7.38028C12.5828 7.38901 12.5915 7.39925 12.606 7.40874C12.6204 7.41822 12.6361 7.42407 12.6495 7.427C12.6604 7.42938 12.6757 7.43129 12.7009 7.42847L18.5909 6.76925C21.9468 6.39365 24.9015 8.22834 24.4433 10.4033C24.389 10.6609 24.287 10.9133 24.1393 11.1551L21.2008 15.9671C20.4813 17.1454 18.9878 18.0574 17.1232 18.4571C14.4594 19.028 11.6329 19.2132 8.84518 18.9995L5.19465 18.7197C3.01472 18.5526 1.30163 17.4388 1.06183 16.0326L0.452892 12.4617C0.224561 11.1227 0.658785 9.77148 1.69353 8.60107L7.46316 2.07492Z" fill="black"/>
</svg>
