<svg width="74" height="73" viewBox="0 0 74 73" fill="none" xmlns="http://www.w3.org/2000/svg">
<path d="M23.8224 5.33965C24.6622 4.39042 24.5629 2.94933 23.6007 2.1209C22.6385 1.29246 21.1776 1.39038 20.3378 2.33962L16.3548 6.8418C14.0954 9.3956 12.8182 12.6518 12.7466 16.0406L12.5718 24.3068C12.5452 25.5665 13.5587 26.6089 14.8356 26.6352C16.1125 26.6614 17.1692 25.6616 17.1958 24.402L17.3706 16.1358C17.4196 13.8171 18.2935 11.5892 19.8393 9.84183L23.8224 5.33965Z" fill="#B0E0E2"/>
<path fill-rule="evenodd" clip-rule="evenodd" d="M23.231 21.4233C23.6593 14.6686 29.3376 9.40646 36.1982 9.40646H37.9169V7.12521C37.9169 5.44535 39.2973 4.08355 41.0002 4.08355C42.7031 4.08355 44.0836 5.44535 44.0836 7.12521V9.40646H45.8022C52.6629 9.40646 58.3411 14.6686 58.7694 21.4233L59.4508 32.1709C59.7106 36.2686 61.1052 40.2175 63.4826 43.5874C65.6307 46.6323 63.7184 50.8377 59.9847 51.2796L49.4794 52.5232V55.7919C49.4794 60.4115 45.6831 64.1565 41.0002 64.1565C36.3173 64.1565 32.5211 60.4115 32.5211 55.7919V52.5232L22.0158 51.2796C18.2821 50.8377 16.3697 46.6323 18.5178 43.5874C20.8952 40.2175 22.2898 36.2686 22.5496 32.1709L23.231 21.4233ZM36.1982 13.969C31.7798 13.969 28.1228 17.3579 27.847 21.7081L27.1656 32.4557C26.853 37.3867 25.1748 42.1385 22.314 46.1937C22.1587 46.4137 22.2969 46.7177 22.5668 46.7496L34.0912 48.1139C38.6808 48.6572 43.3197 48.6572 47.9092 48.1139L59.4336 46.7496C59.7035 46.7177 59.8417 46.4137 59.6865 46.1937C56.8256 42.1385 55.1475 37.3867 54.8348 32.4557L54.1534 21.7081C53.8776 17.3579 50.2207 13.969 45.8022 13.969H36.1982ZM41.0002 59.594C38.8716 59.594 37.1461 57.8917 37.1461 55.7919V53.5106H44.8544V55.7919C44.8544 57.8917 43.1288 59.594 41.0002 59.594Z" fill="#B0E0E2"/>
<path d="M58.3998 2.1209C57.4375 2.94933 57.3383 4.39042 58.1781 5.33965L62.1611 9.84183C63.707 11.5892 64.5809 13.8171 64.6299 16.1358L64.8047 24.402C64.8313 25.6616 65.888 26.6614 67.1649 26.6352C68.4418 26.6089 69.4553 25.5665 69.4287 24.3068L69.2539 16.0406C69.1822 12.6518 67.905 9.3956 65.6457 6.8418L61.6626 2.33962C60.8228 1.39038 59.362 1.29246 58.3998 2.1209Z" fill="#B0E0E2"/>
<path d="M23.8224 5.33965C24.6622 4.39042 24.5629 2.94933 23.6007 2.1209C22.6385 1.29246 21.1776 1.39038 20.3378 2.33962L16.3548 6.8418C14.0954 9.3956 12.8182 12.6518 12.7466 16.0406L12.5718 24.3068C12.5452 25.5665 13.5587 26.6089 14.8356 26.6352C16.1125 26.6614 17.1692 25.6616 17.1958 24.402L17.3706 16.1358C17.4196 13.8171 18.2935 11.5892 19.8393 9.84183L23.8224 5.33965Z" stroke="#0DB2F7" stroke-linecap="round"/>
<path fill-rule="evenodd" clip-rule="evenodd" d="M23.231 21.4233C23.6593 14.6686 29.3376 9.40646 36.1982 9.40646H37.9169V7.12521C37.9169 5.44535 39.2973 4.08355 41.0002 4.08355C42.7031 4.08355 44.0836 5.44535 44.0836 7.12521V9.40646H45.8022C52.6629 9.40646 58.3411 14.6686 58.7694 21.4233L59.4508 32.1709C59.7106 36.2686 61.1052 40.2175 63.4826 43.5874C65.6307 46.6323 63.7184 50.8377 59.9847 51.2796L49.4794 52.5232V55.7919C49.4794 60.4115 45.6831 64.1565 41.0002 64.1565C36.3173 64.1565 32.5211 60.4115 32.5211 55.7919V52.5232L22.0158 51.2796C18.2821 50.8377 16.3697 46.6323 18.5178 43.5874C20.8952 40.2175 22.2898 36.2686 22.5496 32.1709L23.231 21.4233ZM36.1982 13.969C31.7798 13.969 28.1228 17.3579 27.847 21.7081L27.1656 32.4557C26.853 37.3867 25.1748 42.1385 22.314 46.1937C22.1587 46.4137 22.2969 46.7177 22.5668 46.7496L34.0912 48.1139C38.6808 48.6572 43.3197 48.6572 47.9092 48.1139L59.4336 46.7496C59.7035 46.7177 59.8417 46.4137 59.6865 46.1937C56.8256 42.1385 55.1475 37.3867 54.8348 32.4557L54.1534 21.7081C53.8776 17.3579 50.2207 13.969 45.8022 13.969H36.1982ZM41.0002 59.594C38.8716 59.594 37.1461 57.8917 37.1461 55.7919V53.5106H44.8544V55.7919C44.8544 57.8917 43.1288 59.594 41.0002 59.594Z" stroke="#0DB2F7" stroke-linecap="round"/>
<path d="M58.3998 2.1209C57.4375 2.94933 57.3383 4.39042 58.1781 5.33965L62.1611 9.84183C63.707 11.5892 64.5809 13.8171 64.6299 16.1358L64.8047 24.402C64.8313 25.6616 65.888 26.6614 67.1649 26.6352C68.4418 26.6089 69.4553 25.5665 69.4287 24.3068L69.2539 16.0406C69.1822 12.6518 67.905 9.3956 65.6457 6.8418L61.6626 2.33962C60.8228 1.39038 59.362 1.29246 58.3998 2.1209Z" stroke="#0DB2F7" stroke-linecap="round"/>
</svg>
