<svg width="27" height="22" viewBox="0 0 27 22" fill="none" xmlns="http://www.w3.org/2000/svg">
<path d="M13.5003 9.27284C14.1388 9.27284 14.6565 9.68743 14.6565 10.1989V16.3723C14.6565 16.8837 14.1389 17.2983 13.5003 17.2983C12.8617 17.2983 12.344 16.8837 12.344 16.3723L12.344 10.1989C12.344 9.68743 12.8617 9.27284 13.5003 9.27284Z" fill="black"/>
<path d="M13.5003 7.11215C14.3517 7.11215 15.0419 6.55936 15.0419 5.87747C15.0419 5.19557 14.3517 4.64279 13.5003 4.64279C12.6488 4.64279 11.9586 5.19557 11.9586 5.87747C11.9586 6.55936 12.6488 7.11215 13.5003 7.11215Z" fill="black"/>
<path fill-rule="evenodd" clip-rule="evenodd" d="M6.28024 0.653227C11.0402 0.227163 15.9603 0.227163 20.7203 0.653227C23.5359 0.905256 25.8097 2.68152 26.1409 4.94958C26.7102 8.84737 26.7102 12.785 26.1409 16.6828C25.8097 18.9509 23.5359 20.7271 20.7203 20.9792C15.9603 21.4052 11.0402 21.4052 6.28024 20.9792C3.46456 20.7271 1.19077 18.9509 0.85954 16.6828C0.29031 12.785 0.29031 8.84737 0.85954 4.94958C1.19077 2.68152 3.46457 0.905256 6.28024 0.653227ZM20.4634 2.49379C15.8741 2.08301 11.1264 2.08301 6.53709 2.49379C4.77276 2.65171 3.36052 3.76693 3.15638 5.16473C2.60803 8.91958 2.60803 12.7128 3.15638 16.4677C3.36052 17.8655 4.77276 18.9807 6.53709 19.1386C11.1264 19.5494 15.8741 19.5494 20.4634 19.1386C22.2277 18.9807 23.64 17.8655 23.8441 16.4677C24.3925 12.7128 24.3925 8.91958 23.8441 5.16473C23.64 3.76693 22.2277 2.65171 20.4634 2.49379Z" fill="black"/>
</svg>
